<?xml version="1.0" standalone="no"?>
<!DOCTYPE svg PUBLIC "-//W3C//DTD SVG 20010904//EN"
 "http://www.w3.org/TR/2001/REC-SVG-20010904/DTD/svg10.dtd">
<svg version="1.0" xmlns="http://www.w3.org/2000/svg"
 width="113.000000pt" height="113.000000pt" viewBox="0 0 113.000000 113.000000"
 preserveAspectRatio="xMidYMid meet">
<metadata>
Created by potrace 1.11, written by Peter Selinger 2001-2013
</metadata>
<g transform="translate(0.000000,113.000000) scale(0.100000,-0.100000)"
fill="#000000" stroke="none">
<path d="M425 1112 c-96 -36 -178 -104 -232 -192 -25 -41 -53 -132 -53 -171 0
-20 -7 -30 -30 -39 -43 -18 -54 -43 -46 -112 7 -68 25 -108 62 -137 27 -21 74
-29 74 -12 0 4 -11 63 -25 131 -14 68 -25 124 -25 126 0 2 20 4 44 4 l45 0 10
-52 c6 -29 21 -105 34 -168 l22 -115 65 -33 c75 -37 166 -57 229 -48 43 6 43
6 37 -22 -22 -91 -28 -103 -50 -112 -29 -10 -145 3 -205 24 -38 14 -42 14 -37
1 3 -8 10 -44 17 -79 16 -96 20 -99 132 -104 135 -6 161 1 217 57 54 54 55 58
131 439 l42 212 43 0 c24 0 44 -4 44 -9 0 -4 -11 -63 -25 -131 -14 -68 -25
-124 -25 -126 0 -2 11 -4 25 -4 37 0 94 57 105 105 22 94 6 156 -43 169 -21 5
-25 13 -30 63 -13 122 -113 256 -237 316 -57 27 -77 31 -165 34 -79 3 -111 -1
-150 -15z m261 -116 c100 -47 167 -132 181 -231 l6 -45 -75 0 -76 0 -23 -122
-24 -123 -57 -14 c-49 -11 -67 -11 -115 0 l-57 14 -13 70 c-7 39 -18 94 -24
123 l-10 52 -75 0 c-85 0 -85 0 -59 87 27 92 98 165 192 199 63 22 170 18 229
-10z"/>
</g>
</svg>
